<svg xmlns="http://www.w3.org/2000/svg" width="1280" height="640" viewBox="0 0 1280 640">
  <defs>
    <linearGradient id="bg" x1="0" y1="0" x2="0" y2="1">
      <stop offset="0%" stop-color="#0f172a"/>
      <stop offset="100%" stop-color="#020617"/>
    </linearGradient>
    <linearGradient id="win-back" x1="0" y1="0" x2="0" y2="1">
      <stop offset="0%" stop-color="#78350f"/>
      <stop offset="100%" stop-color="#451a03"/>
    </linearGradient>
    <linearGradient id="win-mid" x1="0" y1="0" x2="0" y2="1">
      <stop offset="0%" stop-color="#92400e"/>
      <stop offset="100%" stop-color="#78350f"/>
    </linearGradient>
    <linearGradient id="win-front" x1="0" y1="0" x2="0" y2="1">
      <stop offset="0%" stop-color="#f59e0b"/>
      <stop offset="100%" stop-color="#d97706"/>
    </linearGradient>
    <linearGradient id="titlebar" x1="0" y1="0" x2="0" y2="1">
      <stop offset="0%" stop-color="#fbbf24"/>
      <stop offset="100%" stop-color="#f59e0b"/>
    </linearGradient>
    <linearGradient id="accent-line" x1="0" y1="0" x2="1" y2="0">
      <stop offset="0%" stop-color="#d97706"/>
      <stop offset="50%" stop-color="#0d9488"/>
      <stop offset="100%" stop-color="#0d9488" stop-opacity="0"/>
    </linearGradient>
  </defs>

  <!-- Background -->
  <rect width="1280" height="640" fill="url(#bg)"/>

  <!-- Subtle grid lines -->
  <g stroke="#334155" stroke-width="0.5" opacity="0.12">
    <line x1="0" y1="160" x2="1280" y2="160"/>
    <line x1="0" y1="320" x2="1280" y2="320"/>
    <line x1="0" y1="480" x2="1280" y2="480"/>
    <line x1="320" y1="0" x2="320" y2="640"/>
    <line x1="640" y1="0" x2="640" y2="640"/>
    <line x1="960" y1="0" x2="960" y2="640"/>
  </g>

  <!-- Decorative background terminal shapes (scattered, faded, 3 panes each) -->
  <g transform="translate(40, 80) scale(1.2)" opacity="0.08">
    <rect x="10" y="38" width="76" height="60" rx="6" fill="#94a3b8"/>
    <rect x="20" y="28" width="76" height="60" rx="6" fill="#94a3b8"/>
    <rect x="32" y="18" width="82" height="66" rx="6" fill="#94a3b8"/>
  </g>
  <g transform="translate(980, 60) scale(1.0)" opacity="0.06">
    <rect x="10" y="38" width="76" height="60" rx="6" fill="#94a3b8"/>
    <rect x="20" y="28" width="76" height="60" rx="6" fill="#94a3b8"/>
    <rect x="32" y="18" width="82" height="66" rx="6" fill="#94a3b8"/>
  </g>
  <g transform="translate(30, 400) scale(0.9)" opacity="0.06">
    <rect x="10" y="38" width="76" height="60" rx="6" fill="#94a3b8"/>
    <rect x="20" y="28" width="76" height="60" rx="6" fill="#94a3b8"/>
    <rect x="32" y="18" width="82" height="66" rx="6" fill="#94a3b8"/>
  </g>
  <g transform="translate(1050, 380) scale(1.1)" opacity="0.07">
    <rect x="10" y="38" width="76" height="60" rx="6" fill="#94a3b8"/>
    <rect x="20" y="28" width="76" height="60" rx="6" fill="#94a3b8"/>
    <rect x="32" y="18" width="82" height="66" rx="6" fill="#94a3b8"/>
  </g>

  <!-- Main icon -->
  <g transform="translate(450, 170) scale(1.6)">
    <rect x="10" y="38" width="76" height="60" rx="6" fill="url(#win-back)" opacity="0.6"/>
    <rect x="20" y="28" width="76" height="60" rx="6" fill="url(#win-mid)" opacity="0.7"/>
    <g>
      <rect x="32" y="18" width="82" height="66" rx="6" fill="url(#win-front)"/>
      <rect x="32" y="18" width="82" height="18" rx="6" fill="url(#titlebar)"/>
      <rect x="32" y="30" width="82" height="6" fill="url(#titlebar)"/>
      <circle cx="46" cy="28" r="2.8" fill="#b45309" opacity="0.55"/>
      <circle cx="55" cy="28" r="2.8" fill="#b45309" opacity="0.55"/>
      <circle cx="64" cy="28" r="2.8" fill="#b45309" opacity="0.55"/>
      <rect x="36" y="39" width="74" height="41" rx="3" fill="#b45309" opacity="0.22"/>
      <text x="45" y="65" font-family="'Courier New', monospace" font-size="20" font-weight="bold" fill="#fef3c7" opacity="0.85">$</text>
      <rect x="64" y="51" width="9" height="17" rx="2" fill="#fef3c7" opacity="0.75"/>
    </g>
  </g>

  <!-- "boa" text -->
  <text x="680" y="258" font-family="'Satoshi', 'DM Sans', 'Inter', system-ui, sans-serif" font-size="56" font-weight="400" fill="#e2e8f0" letter-spacing="0.12em">boa</text>

  <!-- "BAND OF AGENTS" subtitle -->
  <text x="680" y="292" font-family="'JetBrains Mono', 'SF Mono', monospace" font-size="14" fill="#64748b" letter-spacing="0.2em">BAND OF AGENTS</text>

  <!-- Tagline -->
  <text x="640" y="398" font-family="'DM Sans', 'Inter', system-ui, sans-serif" font-size="22" fill="#94a3b8">Conquer your codebase.</text>

  <!-- Accent line -->
  <rect x="640" y="430" width="200" height="2" fill="url(#accent-line)" rx="1"/>

  <!-- Bottom border gradient -->
  <rect x="0" y="636" width="1280" height="4" fill="url(#accent-line)"/>
</svg>
